<mxfile host="app.diagrams.net" modified="2024-05-07T11:48:18.794Z" agent="Mozilla/5.0 (Macintosh; Intel Mac OS X 10.15; rv:109.0) Gecko/20100101 Firefox/115.0" version="24.3.1" etag="kLs-5GHzbbCYm0OHp5r4" type="github">
  <diagram name="Page-1" id="XPCQrtxg84oxnPtzx1do">
    <mxGraphModel>
      <root>
        <mxCell id="0" />
        <mxCell id="1" parent="0" />
      </root>
    </mxGraphModel>
  </diagram>
</mxfile>
